HIERARCHY
ROOT root
{
	OFFSET	0	13.1	24.9
	CHANNELS 6  Xposition Yposition Zposition Xrotation Yrotation Zrotation
	JOINT spine_1
	{
		OFFSET	0	9.99999	0
		CHANNELS 3  Xrotation Yrotation Zrotation
		JOINT spine_2
		{
			OFFSET	0	112	-10
			CHANNELS 3  Xrotation Yrotation Zrotation
			JOINT spine_3
			{
				OFFSET	0	206.5	19.3
				CHANNELS 3  Xrotation Yrotation Zrotation
				JOINT spine_4
				{
					OFFSET	0	110.4	14.6
					CHANNELS 3  Xrotation Yrotation Zrotation
					JOINT neck_1
					{
						OFFSET	0	71.8	-50.3
						CHANNELS 3  Xrotation Yrotation Zrotation
						JOINT neck_2
						{
							OFFSET	0	86.2	-25.8
							CHANNELS 3  Xrotation Yrotation Zrotation
							JOINT head_ee
							{
								OFFSET	0	179.8	-8.7
								CHANNELS 3  Xrotation Yrotation Zrotation
								End Site
								{
									OFFSET	1	0	0
								}
							}
						}
					}
					JOINT left_clavicle
					{
						OFFSET	-43.2	22.4	-70.8
						CHANNELS 3  Xrotation Yrotation Zrotation
						JOINT left_shoulder
						{
							OFFSET	-93.9	-5.79999	48.7
							CHANNELS 3  Xrotation Yrotation Zrotation
							JOINT left_elbow
							{
								OFFSET	-291.4	-30.8	15.2
								CHANNELS 3  Xrotation Yrotation Zrotation
								JOINT left_lowarm_twist
								{
									OFFSET	-110.7	-3.89999	13.6
									CHANNELS 3  Xrotation Yrotation Zrotation
									JOINT left_hand
									{
										OFFSET	-110.7	-3.89999	13.6
										CHANNELS 3  Xrotation Yrotation Zrotation
										JOINT left_ee
										{
											OFFSET	-80.8	-5.10001	12.1
											CHANNELS 3  Xrotation Yrotation Zrotation
											End Site
											{
												OFFSET	1	0	0
											}
										}
									}
								}
							}
						}
					}
					JOINT right_clavicle
					{
						OFFSET	43.2	22.4	-70.8
						CHANNELS 3  Xrotation Yrotation Zrotation
						JOINT right_shoulder
						{
							OFFSET	93.9	-5.79999	48.7
							CHANNELS 3  Xrotation Yrotation Zrotation
							JOINT right_elbow
							{
								OFFSET	291.4	-30.8	15.2
								CHANNELS 3  Xrotation Yrotation Zrotation
								JOINT right_lowarm_twist
								{
									OFFSET	110.7	-3.89999	13.6
									CHANNELS 3  Xrotation Yrotation Zrotation
									JOINT right_hand
									{
										OFFSET	110.7	-3.89999	13.6
										CHANNELS 3  Xrotation Yrotation Zrotation
										JOINT right_ee
										{
											OFFSET	80.8	-5.10001	12.1
											CHANNELS 3  Xrotation Yrotation Zrotation
											End Site
											{
												OFFSET	1	0	0
											}
										}
									}
								}
							}
						}
					}
				}
			}
		}
	}
	JOINT left_hip
	{
		OFFSET	-82.8	-127.5	0.300001
		CHANNELS 3  Xrotation Yrotation Zrotation
		JOINT left_knee
		{
			OFFSET	-28.2	-396.7	2.2
			CHANNELS 3  Xrotation Yrotation Zrotation
			JOINT left_ankle
			{
				OFFSET	-11.7	-411.3	35.4
				CHANNELS 3  Xrotation Yrotation Zrotation
				JOINT left_toes
				{
					OFFSET	0	-60	-88.6
					CHANNELS 3  Xrotation Yrotation Zrotation
					JOINT left_foot_ee
					{
						OFFSET	-22.5	-16.5	-42.2
						CHANNELS 3  Xrotation Yrotation Zrotation
						End Site
						{
							OFFSET	1	0	0
						}
					}
				}
			}
		}
	}
	JOINT right_hip
	{
		OFFSET	82.8	-127.5	0.300001
		CHANNELS 3  Xrotation Yrotation Zrotation
		JOINT right_knee
		{
			OFFSET	28.2	-396.7	2.2
			CHANNELS 3  Xrotation Yrotation Zrotation
			JOINT right_ankle
			{
				OFFSET	11.7	-411.3	35.4
				CHANNELS 3  Xrotation Yrotation Zrotation
				JOINT right_toes
				{
					OFFSET	0	-60	-88.6
					CHANNELS 3  Xrotation Yrotation Zrotation
					JOINT right_foot_ee
					{
						OFFSET	22.5	-16.5	-42.2
						CHANNELS 3  Xrotation Yrotation Zrotation
						End Site
						{
							OFFSET	1	0	0
						}
					}
				}
			}
		}
	}
}
MOTION
Frames: 13
Frame Time: 0.02
3177.02 653.055 -1669.29 111.178488468 81.2083643358 -112.59231242 -10.886 -0.0840306 0.0917961 -10.886 -0.0897015 0.086263 -10.8862 -0.116291 0.044318 -10.8862 -0.107832 0.0621278 4.39089 6.2121 2.76301 4.46423 8.31052 3.47696 -0.0 0.0 -0.0 8.81925 22.4885 15.2303 -11.1255 -17.9532 67.0137 0.187187 -5.29786 0.00866034 -18.9851 -1.04069 2.18208 3.00835 25.9087 28.3809 -0.0 0.0 -0.0 12.2902 14.3563 -24.8825 27.6533 19.1671 -50.3041 2.85863 54.7608 -1.48076 36.4732 0.178643 4.57806 7.15115 -22.1078 -66.7546 0.0 0.0 0.0 55.0279 -25.4161 10.2034 -59.8946 -2.18861 8.51382 9.37319 23.3687 -1.3851 -8.12247 0.0 0.0 -0.0 0.0 -0.0 -32.244 5.56079 -3.0366 -29.2254 -0.0729566 -4.43607 11.5998 -7.97338 1.63948 -36.4233 0.0 0.0 0.0 0.0 0.0 
3152.70761828 661.029 -1664.69218135 109.276200276 81.9834211846 -110.701568131 -10.875 -0.138245 0.296921 -10.875 -0.156859 0.287522 -10.8758 -0.256765 0.203337 -10.8758 -0.221429 0.241336 3.64675 6.41673 5.85659 3.74165 6.07881 6.98575 -0.0 0.0 -0.0 8.91033 22.94 15.299 -10.1749 -18.1414 67.3601 0.178457 -5.05206 0.00787282 -20.333 -1.14132 2.32234 2.18531 26.4024 23.2568 -0.0 0.0 -0.0 12.0937 17.1003 -24.3241 27.4262 16.2434 -50.6734 2.83642 54.5501 -1.46264 37.6138 0.231002 4.71418 7.21773 -23.1951 -68.0529 0.0 0.0 0.0 54.0442 -23.5684 9.37682 -61.2663 -2.33826 8.66345 8.42297 21.1796 -1.23622 -6.1857 0.0 0.0 -0.0 0.0 -0.0 -33.0881 2.85259 -1.17416 -26.7957 -0.1534 -4.07189 4.43946 -6.66352 0.642421 -37.9033 0.0 0.0 0.0 0.0 0.0 
3129.62688234 660.787 -1660.31141388 108.233628402 82.3085736229 -109.564983677 -10.6759 -0.20551 0.433591 -10.6759 -0.232683 0.419635 -10.6776 -0.377175 0.296605 -10.6776 -0.325599 0.35245 3.9721 5.84703 5.89782 4.06128 5.00709 7.00438 -0.0 0.0 -0.0 8.6466 23.4658 14.8309 -8.75381 -18.3547 68.0284 0.186665 -5.28316 0.00861222 -20.3111 -1.13966 2.32008 1.80986 23.9822 20.3357 -0.0 0.0 -0.0 12.3184 20.4287 -24.6353 29.7532 12.0049 -51.3786 2.68489 53.0522 -1.34035 35.5006 0.13615 4.46121 7.27451 -26.142 -69.0508 0.0 0.0 0.0 53.6052 -23.4266 8.61171 -62.777 -2.5072 8.8241 6.46838 16.5961 -0.940383 2.73106 -0.0 -0.0 -0.0 0.0 -0.0 -35.7629 3.60424 -1.14235 -21.6765 -0.271951 -3.29551 -1.72879 -6.35466 -0.254171 -38.5552 0.0 0.0 0.0 0.0 0.0 
3102.0762792 669.647 -1653.35534053 98.3482200087 82.7391935601 -100.017862423 -10.5293 -0.257932 0.581884 -10.5292 -0.294435 0.564293 -10.5321 -0.489152 0.407246 -10.5321 -0.418697 0.479387 3.25432 6.57488 6.67332 3.36995 5.70927 7.90473 -0.0 0.0 -0.0 8.82765 23.3378 15.1162 -7.7667 -17.9789 67.8359 0.208757 -5.90424 0.0107655 -19.974 -1.1142 2.28521 0.860114 22.0804 13.9799 -0.0 0.0 -0.0 12.3874 20.9112 -24.7576 29.6558 10.433 -52.2304 2.42895 50.2624 -1.13955 37.4198 0.221906 4.6911 7.37573 -24.4636 -71.365 0.0 0.0 0.0 53.0984 -22.1766 8.65978 -60.8442 -2.29183 8.61779 -4.43157 18.0142 0.663719 7.61295 -0.0 -0.0 -0.0 0.0 -0.0 -35.7529 4.85021 -0.517793 -20.3418 -0.291419 -3.09163 -13.4848 -8.80111 -2.01853 -38.9084 0.0 0.0 0.0 0.0 0.0 
3045.79154539 677.158 -1633.39699896 71.4288039142 83.4143533916 -72.4595678336 -10.0562 0.0942876 0.611103 -10.056 0.0552112 0.615864 -10.0548 -0.181456 0.59111 -10.0553 -0.085826 0.612348 5.47406 4.74832 5.78038 5.55199 3.01761 6.86094 -0.0 0.0 -0.0 9.17411 23.9378 15.5308 -6.58144 -17.2731 69.7164 0.329153 -9.26093 0.0266593 -23.9854 -1.43035 2.69022 -0.745701 21.0129 4.04132 -0.0 0.0 -0.0 11.1934 16.5266 -22.3002 26.148 11.9571 -54.9919 2.02062 45.0222 -0.837501 35.6536 0.142705 4.47965 7.35597 -26.6833 -70.6882 0.0 0.0 0.0 50.7306 -18.1668 7.59224 -65.5858 -2.83237 9.11081 3.33354 18.7235 -0.491866 16.4994 -0.0 -0.0 -0.0 0.0 -0.0 -36.2899 6.08006 2.22314 -21.1649 -0.279974 -3.21742 -21.4027 -7.61817 -3.21929 -38.9436 0.0 0.0 0.0 0.0 0.0 
3021.69731752 681.985 -1630.79208955 54.4802180792 82.1189997364 -55.1320672076 -10.0325 0.267615 0.622544 -10.0324 0.22746 0.638311 -10.029 -0.0301243 0.676956 -10.0296 0.0771638 0.673218 3.16614 6.70108 3.10939 3.24783 9.00838 3.9296 -0.0 0.0 -0.0 9.31432 22.282 16.0097 -5.54995 -17.4794 69.607 0.399363 -11.1907 0.0391253 -21.837 -1.25748 2.47602 -0.886741 19.6485 2.63198 -0.0 0.0 -0.0 11.1918 13.068 -22.4216 25.7062 12.9067 -56.3972 1.96343 44.2002 -0.797335 33.5414 0.0566127 4.22375 7.30798 -29.2904 -69.0392 0.0 0.0 0.0 49.007 -16.1992 5.30949 -68.1436 -3.14045 9.35788 2.97299 14.5725 -0.434419 20.9239 -0.0 -0.0 -0.0 0.0 -0.0 -35.8057 9.53574 2.82376 -24.8044 -0.207761 -3.77114 -23.7456 -10.7644 -3.57416 -40.0233 0.0 0.0 0.0 0.0 0.0 
3021.47255936 681.985 -1631.71050413 52.5390099203 81.9176442895 -53.1718763916 -10.0325 0.267615 0.622544 -10.0324 0.22746 0.638311 -10.029 -0.0301243 0.676956 -10.0296 0.0771638 0.673218 3.16614 6.70108 3.10939 3.24783 9.00838 3.9296 -0.0 0.0 -0.0 9.31432 22.282 16.0097 -5.54995 -17.4794 69.607 0.399363 -11.1907 0.0391253 -21.837 -1.25748 2.47602 -0.886741 19.6485 2.63198 -0.0 0.0 -0.0 11.1918 13.068 -22.4216 25.7062 12.9067 -56.3972 1.96343 44.2002 -0.797335 33.5414 0.0566127 4.22375 7.30798 -29.2904 -69.0392 0.0 0.0 0.0 49.007 -16.1992 5.30949 -68.1436 -3.14045 9.35788 2.97299 14.5725 -0.434419 20.9239 -0.0 -0.0 -0.0 0.0 -0.0 -35.8057 9.53574 2.82376 -24.8044 -0.207761 -3.77114 -23.7456 -10.7644 -3.57416 -40.0233 0.0 0.0 0.0 0.0 0.0 
2978.19550092 690.746 -1636.77195192 37.2277984721 78.1739909106 -36.6374068727 -9.85666 0.455944 0.44046 -9.85666 0.426993 0.46858 -9.85267 0.220535 0.59435 -9.85303 0.311633 0.552063 3.26448 6.48202 2.85432 3.34199 8.83318 3.62717 -0.0 0.0 -0.0 9.91489 20.7125 17.2015 -3.20675 -18.1104 69.1892 0.671124 -18.3897 0.108638 -21.4084 -1.22397 2.43254 -1.39509 17.2497 -1.48442 -0.0 0.0 -0.0 10.89 10.3568 -21.7907 25.1529 12.0592 -59.3134 1.78744 41.5193 -0.67759 31.5163 -0.0170066 3.97562 7.21069 -31.5743 -66.4365 0.0 0.0 0.0 44.4707 -13.3477 2.18484 -67.3334 -3.04168 9.2811 10.9462 17.2692 -1.57202 28.6014 -0.0 -0.0 -0.0 0.0 -0.0 -30.9205 13.026 3.356 -46.5335 0.933839 -6.88751 -24.1976 -14.5112 -3.65883 -27.0352 0.0 0.0 0.0 0.0 0.0 
2932.44915224 717.781 -1639.05656933 39.51622047 76.5045646728 -38.7309271813 -10.4482 0.545386 0.302068 -10.4483 0.52506 0.33616 -10.4451 0.35577 0.511976 -10.4452 0.432162 0.449364 4.54943 5.31594 2.92455 4.60065 6.60655 3.61036 -0.0 0.0 -0.0 10.4789 15.5955 18.9798 1.74094 -19.0491 68.407 0.833381 -22.4323 0.165261 -20.7749 -1.17503 2.36781 -2.0634 17.6165 -5.37677 -0.0 0.0 -0.0 11.1002 8.666 -22.2585 22.1919 13.1395 -58.7632 1.61244 38.6134 -0.564915 27.9287 -0.125714 3.53034 6.88819 -31.3606 -61.6165 0.0 0.0 0.0 36.2818 -11.5071 2.121 -65.7279 -2.84919 9.12489 25.4634 28.0674 -3.63495 33.5475 -0.0 -0.0 -0.0 0.0 -0.0 -16.6568 14.6348 -0.915076 -75.7237 4.11425 -10.0067 -20.4984 -18.6569 -3.12923 -8.67325 0.0 0.0 0.0 0.0 0.0 
2900.79468576 729.527 -1651.23733095 45.7621493101 76.4291198397 -43.1776943724 -10.7665 0.168338 -0.0722968 -10.7665 0.172597 -0.0614385 -10.7668 0.182901 0.0105639 -10.7668 0.182274 -0.0184546 6.73658 5.79541 3.81608 6.79607 6.38874 4.64878 -0.0 0.0 -0.0 10.4457 15.1547 18.9898 4.73952 -18.7785 68.6252 0.859185 -23.0551 0.175237 -19.9722 -1.11406 2.28502 -2.27814 17.6662 -6.66169 -0.0 0.0 -0.0 11.0122 6.61583 -22.0399 19.3884 14.1215 -58.9211 1.55333 37.5747 -0.528444 27.0168 -0.148882 3.41616 6.92054 -31.4453 -62.0371 0.0 0.0 0.0 29.3105 -9.96726 1.53416 -61.5604 -2.37081 8.69507 31.0266 26.9329 -4.27664 34.0027 -0.0 -0.0 -0.0 0.0 -0.0 -7.94021 14.9726 -0.620085 -80.244 4.73278 -10.3306 -17.1786 -20.1651 -2.63137 -8.1406 0.0 0.0 0.0 0.0 0.0 
2888.1941769 738.923 -1656.10106474 46.9354468225 76.0084590661 -43.9183251574 -10.9002 0.208778 -0.193307 -10.9002 0.220655 -0.17963 -10.9011 0.273348 -0.0789712 -10.901 0.257445 -0.121151 5.92256 6.22258 3.10684 5.99518 7.84432 3.84202 -0.0 0.0 -0.0 10.4916 11.9209 19.5363 7.81423 -20.9696 67.734 0.875371 -23.4429 0.181626 -19.4877 -1.07783 2.23465 -2.16411 17.5563 -6.02064 -0.0 0.0 -0.0 11.0723 5.96963 -22.1574 18.5588 13.9343 -59.2352 1.46265 35.9232 -0.474183 25.7754 -0.177493 3.26016 6.77549 -31.5844 -60.0694 0.0 0.0 0.0 26.9065 -5.99832 -0.0424622 -58.8507 -2.07717 8.39761 34.5471 27.4287 -4.68712 37.6217 -0.0 -0.0 -0.0 0.0 -0.0 -6.31249 14.0522 -2.15382 -81.1211 4.85565 -10.3877 -14.1723 -22.2825 -2.18371 -6.09657 0.0 0.0 0.0 0.0 0.0 
2880.37817438 748.109 -1655.95171775 40.3641549467 76.5117615765 -36.8940595805 -10.378 0.38958 -0.422062 -10.378 0.415648 -0.396417 -10.3812 0.535764 -0.207039 -10.381 0.496342 -0.289056 5.20632 6.75251 4.32555 5.28892 7.76767 5.27344 -0.0 0.0 -0.0 10.5098 11.0701 19.6818 12.1471 -22.5734 67.6592 0.900705 -24.0453 0.191827 -18.7645 -1.02454 2.15891 -2.04065 17.7296 -5.1827 -0.0 0.0 -0.0 10.8972 5.95963 -21.7754 17.4944 13.2416 -60.0016 1.40036 34.7469 -0.438152 24.6305 -0.200877 3.11578 6.68384 -31.7576 -58.8815 0.0 0.0 0.0 25.4941 -5.62947 -0.98946 -51.3194 -1.33901 7.50275 34.0546 24.5445 -4.54825 37.4316 -0.0 -0.0 -0.0 0.0 -0.0 -3.90459 14.6989 -4.00509 -80.5598 4.77691 -10.3514 -7.96555 -25.3056 -1.2359 -2.99177 0.0 0.0 0.0 0.0 0.0 
2865.66190005 758.361 -1651.3025531 44.5307484398 78.1547038865 -41.463373877 -9.97619 0.10993 -0.626702 -9.97599 0.149585 -0.618437 -9.97727 0.371368 -0.516652 -9.97752 0.285113 -0.568817 3.63934 7.11006 4.66855 3.73197 8.31277 5.69246 -0.0 0.0 -0.0 10.5864 9.34695 20.0403 16.2103 -23.1217 68.2252 0.923069 -24.5724 0.201033 -18.6485 -1.01608 2.14668 -2.04695 17.4666 -5.3502 -0.0 0.0 -0.0 10.154 5.56344 -20.1608 15.31 13.8627 -60.8234 1.32274 33.2332 -0.39476 24.2255 -0.208457 3.0646 6.60811 -31.9658 -57.9242 0.0 0.0 0.0 22.7226 -1.10168 -1.99897 -44.3222 -0.764384 6.59247 37.9191 19.576 -4.82241 38.327 -0.0 -0.0 -0.0 0.0 -0.0 3.73811 13.6179 -3.37429 -84.3212 5.31089 -10.5802 -4.22724 -25.8112 -0.653694 -1.3543 0.0 0.0 0.0 0.0 0.0 
